<svg width="21" height="17" viewBox="0 0 21 17" fill="none" xmlns="http://www.w3.org/2000/svg">
<path d="M17.3665 6.92308C17.3665 7.12709 17.2855 7.32275 17.1412 7.46701C16.9969 7.61126 16.8013 7.69231 16.5973 7.69231H12.7511C12.5471 7.69231 12.3514 7.61126 12.2072 7.46701C12.0629 7.32275 11.9819 7.12709 11.9819 6.92308C11.9819 6.71906 12.0629 6.52341 12.2072 6.37915C12.3514 6.23489 12.5471 6.15385 12.7511 6.15385H16.5973C16.8013 6.15385 16.9969 6.23489 17.1412 6.37915C17.2855 6.52341 17.3665 6.71906 17.3665 6.92308ZM16.5973 9.23077H12.7511C12.5471 9.23077 12.3514 9.31181 12.2072 9.45607C12.0629 9.60033 11.9819 9.79599 11.9819 10C11.9819 10.204 12.0629 10.3997 12.2072 10.5439C12.3514 10.6882 12.5471 10.7692 12.7511 10.7692H16.5973C16.8013 10.7692 16.9969 10.6882 17.1412 10.5439C17.2855 10.3997 17.3665 10.204 17.3665 10C17.3665 9.79599 17.2855 9.60033 17.1412 9.45607C16.9969 9.31181 16.8013 9.23077 16.5973 9.23077ZM20.4434 1.53846V15.3846C20.4434 15.7926 20.2813 16.184 19.9928 16.4725C19.7043 16.761 19.313 16.9231 18.905 16.9231H1.98188C1.57386 16.9231 1.18254 16.761 0.894025 16.4725C0.605508 16.184 0.44342 15.7926 0.44342 15.3846V1.53846C0.44342 1.13044 0.605508 0.739122 0.894025 0.450605C1.18254 0.162087 1.57386 0 1.98188 0H18.905C19.313 0 19.7043 0.162087 19.9928 0.450605C20.2813 0.739122 20.4434 1.13044 20.4434 1.53846ZM18.905 15.3846V1.53846H1.98188V15.3846H18.905ZM11.1877 12.1154C11.2387 12.313 11.2091 12.5228 11.1054 12.6986C11.0017 12.8745 10.8324 13.0019 10.6348 13.0529C10.4371 13.1039 10.2273 13.0743 10.0515 12.9706C9.8757 12.8669 9.74827 12.6976 9.69727 12.5C9.44438 11.5135 8.4415 10.7692 7.36554 10.7692C6.28957 10.7692 5.28765 11.5135 5.0338 12.5C4.9828 12.6976 4.85538 12.8669 4.67956 12.9706C4.50375 13.0743 4.29394 13.1039 4.09631 13.0529C3.89867 13.0019 3.72939 12.8745 3.6257 12.6986C3.52201 12.5228 3.49242 12.313 3.54342 12.1154C3.79304 11.1863 4.38309 10.3851 5.19631 9.87115C4.76416 9.44157 4.46929 8.89335 4.34908 8.29599C4.22887 7.69862 4.28874 7.07902 4.52108 6.51572C4.75343 5.95242 5.14779 5.47079 5.65419 5.13188C6.16058 4.79297 6.7562 4.61205 7.36554 4.61205C7.97487 4.61205 8.57049 4.79297 9.07689 5.13188C9.58328 5.47079 9.97764 5.95242 10.21 6.51572C10.4423 7.07902 10.5022 7.69862 10.382 8.29599C10.2618 8.89335 9.96691 9.44157 9.53477 9.87115C10.3489 10.3844 10.9395 11.1858 11.1886 12.1154H11.1877ZM7.3665 9.23077C7.67078 9.23077 7.96822 9.14054 8.22122 8.97149C8.47422 8.80244 8.67141 8.56217 8.78785 8.28105C8.90429 7.99993 8.93476 7.6906 8.8754 7.39217C8.81604 7.09374 8.66951 6.81961 8.45435 6.60445C8.2392 6.38929 7.96507 6.24277 7.66664 6.18341C7.3682 6.12405 7.05887 6.15451 6.77775 6.27095C6.49664 6.3874 6.25636 6.58459 6.08731 6.83758C5.91827 7.09058 5.82804 7.38803 5.82804 7.69231C5.82804 8.10033 5.99012 8.49165 6.27864 8.78016C6.56716 9.06868 6.95847 9.23077 7.3665 9.23077Z" fill="#C974EC"/>
</svg>
