<svg width="18" height="14" viewBox="0 0 18 14" fill="none" xmlns="http://www.w3.org/2000/svg">
<path d="M2.19342 1.375V12.625C2.19342 12.7908 2.12757 12.9497 2.01036 13.0669C1.89315 13.1842 1.73418 13.25 1.56842 13.25C1.40266 13.25 1.24369 13.1842 1.12648 13.0669C1.00927 12.9497 0.94342 12.7908 0.94342 12.625V1.375C0.94342 1.20924 1.00927 1.05027 1.12648 0.933058C1.24369 0.815848 1.40266 0.75 1.56842 0.75C1.73418 0.75 1.89315 0.815848 2.01036 0.933058C2.12757 1.05027 2.19342 1.20924 2.19342 1.375ZM8.75592 5.63281L7.19342 6.14062V4.5C7.19342 4.33424 7.12757 4.17527 7.01036 4.05806C6.89315 3.94085 6.73418 3.875 6.56842 3.875C6.40266 3.875 6.24369 3.94085 6.12648 4.05806C6.00927 4.17527 5.94342 4.33424 5.94342 4.5V6.14062L4.38092 5.63281C4.22324 5.58101 4.05144 5.59397 3.90332 5.66884C3.75519 5.74371 3.64288 5.87435 3.59108 6.03203C3.53928 6.18971 3.55224 6.36151 3.6271 6.50963C3.70197 6.65776 3.83262 6.77007 3.9903 6.82188L5.5528 7.32891L4.58873 8.65703C4.53779 8.72323 4.50062 8.79897 4.47945 8.87977C4.45827 8.96058 4.4535 9.04481 4.46543 9.12748C4.47736 9.21016 4.50575 9.28961 4.5489 9.36113C4.59206 9.43265 4.64912 9.49479 4.7167 9.54389C4.78428 9.59298 4.86102 9.62803 4.94238 9.64696C5.02374 9.66589 5.10807 9.66832 5.19038 9.65411C5.2727 9.63989 5.35133 9.60932 5.42163 9.5642C5.49193 9.51908 5.55247 9.46032 5.59967 9.39141L6.56373 8.06328L7.5278 9.39141C7.575 9.46032 7.63554 9.51908 7.70584 9.5642C7.77614 9.60932 7.85477 9.63989 7.93708 9.65411C8.0194 9.66832 8.10372 9.66589 8.18508 9.64696C8.26644 9.62803 8.34318 9.59298 8.41077 9.54389C8.47835 9.49479 8.53541 9.43265 8.57856 9.36113C8.62172 9.28961 8.6501 9.21016 8.66203 9.12748C8.67396 9.04481 8.6692 8.96058 8.64802 8.87977C8.62684 8.79897 8.58968 8.72323 8.53873 8.65703L7.57467 7.32891L9.13717 6.82188C9.28789 6.76582 9.41119 6.65382 9.48146 6.50918C9.55172 6.36454 9.56353 6.19839 9.51444 6.04526C9.46534 5.89213 9.35911 5.76382 9.21784 5.68701C9.07658 5.61019 8.91113 5.59078 8.75592 5.63281ZM17.0372 6.03438C16.986 5.87813 16.8752 5.74837 16.729 5.6732C16.5828 5.59804 16.4128 5.58353 16.2559 5.63281L14.6934 6.14062V4.5C14.6934 4.33424 14.6276 4.17527 14.5104 4.05806C14.3932 3.94085 14.2342 3.875 14.0684 3.875C13.9027 3.875 13.7437 3.94085 13.6265 4.05806C13.5093 4.17527 13.4434 4.33424 13.4434 4.5V6.14062L11.8809 5.63359C11.8028 5.6082 11.7205 5.59844 11.6387 5.60485C11.5568 5.61127 11.4771 5.63375 11.4039 5.671C11.3307 5.70825 11.2656 5.75955 11.2123 5.82197C11.1589 5.88438 11.1184 5.95669 11.093 6.03477C11.0676 6.11284 11.0579 6.19515 11.0643 6.277C11.0707 6.35885 11.0932 6.43863 11.1304 6.5118C11.1677 6.58496 11.219 6.65007 11.2814 6.7034C11.3438 6.75674 11.4161 6.79726 11.4942 6.82266L13.0567 7.32969L12.0926 8.65781C12.0417 8.72401 12.0045 8.79975 11.9834 8.88055C11.9622 8.96136 11.9574 9.04559 11.9693 9.12826C11.9813 9.21094 12.0097 9.29039 12.0528 9.36191C12.096 9.43343 12.153 9.49557 12.2206 9.54467C12.2882 9.59376 12.3649 9.62881 12.4463 9.64774C12.5276 9.66667 12.612 9.6691 12.6943 9.65489C12.7766 9.64067 12.8552 9.6101 12.9255 9.56498C12.9958 9.51986 13.0564 9.4611 13.1036 9.39219L14.0676 8.06406L15.0317 9.39219C15.0789 9.4611 15.1394 9.51986 15.2097 9.56498C15.28 9.6101 15.3587 9.64067 15.441 9.65489C15.5233 9.6691 15.6076 9.66667 15.689 9.64774C15.7704 9.62881 15.8471 9.59376 15.9147 9.54467C15.9823 9.49557 16.0393 9.43343 16.0825 9.36191C16.1256 9.29039 16.154 9.21094 16.1659 9.12826C16.1779 9.04559 16.1731 8.96136 16.1519 8.88055C16.1307 8.79975 16.0936 8.72401 16.0426 8.65781L15.0786 7.32969L16.6411 6.82266C16.7979 6.77038 16.9277 6.65807 17.0019 6.51033C17.0762 6.36258 17.0888 6.19144 17.0372 6.03438Z" fill="#C974EC"/>
</svg>
